<svg xmlns="http://www.w3.org/2000/svg" width="24" height="24" viewBox="0 0 24 24" fill="none" stroke="currentColor" stroke-width="2" stroke-linecap="round" stroke-linejoin="round"><path d="M9.5 2A2.5 2.5 0 0 1 12 4.5v0A2.5 2.5 0 0 1 9.5 7h-3A2.5 2.5 0 0 1 4 4.5v0A2.5 2.5 0 0 1 6.5 2h3m10.5 0A2.5 2.5 0 0 1 22 4.5v0a2.5 2.5 0 0 1-2.5 2.5h-3A2.5 2.5 0 0 1 14 4.5v0A2.5 2.5 0 0 1 16.5 2h3M9.5 20a2.5 2.5 0 0 1 2.5-2.5v0a2.5 2.5 0 0 1-2.5-2.5h-3A2.5 2.5 0 0 1 4 17.5v0A2.5 2.5 0 0 1 6.5 20h3m10.5 0a2.5 2.5 0 0 1 2.5-2.5v0a2.5 2.5 0 0 1-2.5-2.5h-3a2.5 2.5 0 0 1-2.5 2.5v0a2.5 2.5 0 0 1 2.5 2.5h3M8 12a1 1 0 0 1 1-1h6a1 1 0 0 1 1 1v1a1 1 0 0 1-1 1H9a1 1 0 0 1-1-1v-1z"></path></svg>